<?xml version="1.0" standalone="no"?>
<!DOCTYPE svg PUBLIC "-//W3C//DTD SVG 20010904//EN"
 "http://www.w3.org/TR/2001/REC-SVG-20010904/DTD/svg10.dtd">
<svg version="1.0" xmlns="http://www.w3.org/2000/svg"
 width="700.000000pt" height="700.000000pt" viewBox="0 0 700.000000 700.000000"
 preserveAspectRatio="xMidYMid meet">
<metadata>
Created by potrace 1.14, written by Peter Selinger 2001-2017
</metadata>
<g transform="translate(0.000000,700.000000) scale(0.100000,-0.100000)"
fill="#000000" stroke="none">
<path d="M3278 6995 c-1 -1 -42 -5 -89 -9 -47 -4 -95 -8 -105 -10 -10 -2 -46
-7 -80 -11 -156 -19 -429 -92 -604 -162 -691 -275 -1260 -794 -1603 -1458
-110 -214 -212 -488 -262 -705 -25 -108 -28 -125 -41 -205 -4 -27 -9 -57 -10
-65 -19 -102 -27 -592 -12 -750 54 -553 251 -1070 566 -1490 71 -95 246 -290
322 -360 69 -63 229 -196 270 -225 14 -9 48 -34 75 -55 78 -59 311 -187 443
-243 265 -114 554 -192 820 -222 144 -16 517 -9 646 13 28 5 68 11 88 14 55 8
65 10 177 36 341 80 677 223 957 408 80 53 305 222 314 236 3 5 28 28 56 50
122 100 377 377 485 526 246 340 429 768 502 1182 12 68 24 141 26 163 3 22 7
51 10 65 26 157 26 568 0 722 -2 14 -7 48 -10 75 -65 533 -324 1072 -710 1475
-77 80 -207 200 -220 200 -4 0 -16 9 -28 20 -47 45 -368 243 -468 290 -213
100 -499 193 -663 217 -27 4 -57 9 -65 11 -8 2 -40 7 -70 10 -30 3 -62 8 -70
10 -51 13 -540 29 -552 19z m-90 -1380 c117 -29 205 -104 250 -211 32 -78 38
-112 41 -244 l4 -135 -134 -5 -134 -5 -5 120 c-5 133 -14 159 -68 195 -36 24
-124 28 -159 8 -57 -33 -63 -62 -63 -308 0 -237 4 -264 53 -305 28 -25 41 -29
92 -29 65 0 103 17 132 60 23 35 26 125 4 125 -9 0 -67 -7 -107 -13 -4 -1 -9
43 -10 97 l-3 98 178 1 177 2 1 -136 c1 -217 -27 -329 -104 -410 -21 -22 -58
-50 -83 -62 -123 -60 -349 -66 -464 -12 -139 66 -199 186 -210 422 -16 336 7
528 76 634 66 101 175 151 335 151 39 0 95 -8 125 -18 30 -9 58 -17 62 -18 4
0 24 -5 44 -12z m1362 0 c95 -24 183 -91 230 -176 38 -70 40 -88 40 -359 l0
-254 -47 -83 c-57 -101 -97 -135 -182 -158 -97 -25 -247 -13 -324 27 -124 65
-177 195 -177 434 0 99 11 190 31 252 49 154 188 289 339 329 52 13 38 13 90
-12z m885 -14 c89 -40 138 -93 175 -190 46 -121 54 -391 16 -548 -41 -167
-152 -272 -321 -304 -82 -16 -200 -6 -277 23 -86 32 -159 108 -188 195 -12 35
-24 95 -27 133 -4 38 -9 76 -12 85 -16 48 -1 332 22 410 15 52 73 153 103 181
77 73 178 106 330 105 74 0 106 -5 179 -29z m-3127 -166 c37 -108 89 -258 115
-335 27 -77 64 -183 82 -235 19 -52 71 -205 116 -340 45 -135 86 -256 90 -270
5 -14 48 -139 95 -278 l86 -253 -128 1 c-70 1 -133 2 -140 3 -9 1 -28 48 -59
143 l-46 139 -211 -2 -212 -3 -46 -137 -45 -138 -140 -1 c-77 0 -140 2 -140 5
0 5 126 378 185 550 164 473 355 1033 370 1085 9 33 25 80 34 104 l18 44 130
-1 129 0 67 -196z m662 180 l0 -14 188 -3 187 -3 0 20 0 20 134 0 135 0 -2
-597 -3 -597 -134 0 -133 0 0 496 c0 273 -2 499 -4 502 -4 4 -357 10 -367 6
-3 -1 -6 -228 -6 -504 l0 -502 -132 1 -133 0 0 595 0 595 135 0 c105 0 135 -3
135 -15z"/>
<path d="M4501 5363 c-70 -21 -128 -93 -146 -183 -25 -120 -21 -393 6 -498 46
-178 211 -247 345 -143 70 55 96 121 108 271 6 82 6 82 0 205 -9 161 -37 251
-93 308 -47 47 -145 66 -220 40z"/>
<path d="M5413 5364 c-132 -44 -192 -176 -196 -433 -3 -201 19 -316 81 -412
41 -63 113 -92 216 -88 142 6 207 67 236 221 25 133 13 414 -23 517 -56 160
-177 240 -314 195z"/>
<path d="M1908 4791 c-2 -3 -3 -16 -4 -28 0 -13 -13 -38 -30 -57 -18 -21 -32
-50 -34 -70 -7 -79 -11 -134 -12 -140 -1 -12 -1 -54 0 -81 1 -16 -2 -42 -5
-58 -4 -16 -6 -31 -5 -34 1 -3 0 -9 -1 -13 -1 -5 -3 -12 -5 -18 -1 -5 -3 -14
-4 -20 -1 -5 -5 -30 -9 -55 -3 -25 -8 -54 -10 -65 -2 -12 -7 -37 -10 -56 -3
-19 -9 -58 -14 -86 -7 -45 -7 -54 8 -63 14 -8 56 -12 121 -12 l8 0 -6 37 c-3
21 -8 47 -10 58 -2 11 -11 65 -20 120 -9 55 -18 111 -21 125 -2 14 -7 43 -10
65 -3 22 -12 72 -19 110 -8 39 -12 70 -10 70 2 0 25 -71 51 -157 26 -87 53
-177 60 -200 8 -24 25 -82 40 -130 14 -48 24 -89 23 -91 -2 -2 -7 -13 -10 -24
-3 -12 -15 -57 -28 -102 l-22 -81 23 -5 c61 -13 195 -5 208 13 3 5 37 121 76
257 38 137 73 260 78 273 5 13 6 27 3 30 -3 3 -1 11 4 18 21 25 23 -33 6 -214
-8 -93 -18 -195 -21 -228 -3 -32 -6 -60 -7 -62 -1 -1 -2 -12 -3 -24 -1 -20 3
-21 119 -25 67 -2 122 -2 122 0 0 2 -9 108 -20 235 -11 127 -20 242 -21 255
-2 28 -15 190 -19 235 -2 31 -8 33 -95 35 -53 1 -65 -1 -70 -15 -7 -22 -94
-365 -102 -401 -11 -48 -18 -53 -31 -20 -7 17 -79 269 -95 332 -3 11 -6 25 -8
30 -3 9 -22 12 -89 10 -13 0 -25 -3 -27 -6z"/>
</g>
</svg> 